<?xml version="1.0" encoding="utf-8"?>
<!-- Generator: Adobe Illustrator 28.0.0, SVG Export Plug-In . SVG Version: 6.00 Build 0)  -->
<svg version="1.1" id="Layer_1" xmlns="http://www.w3.org/2000/svg" xmlns:xlink="http://www.w3.org/1999/xlink" x="0px" y="0px"
	 viewBox="0 0 67.5 70" style="enable-background:new 0 0 67.5 70;" xml:space="preserve">
<style type="text/css">
	.st0{fill:#DAA520;stroke:#DAA520;stroke-miterlimit:10;}
	.st1{display:none;fill:#DAA520;stroke:#DAA520;stroke-miterlimit:10;}
</style>
<g id="Layer_2_00000109015564496889249950000010478945203653237435_">
	<g>
		<path class="st0" d="M34.1,2.9C42.7,3,51.3,3.8,59.2,7.5c6.6,3.1,6.5,3,6,10.3c-0.8,13.4-6.7,24.7-15.3,34.8
			c-4.4,5.2-9.5,9.7-14.9,13.9c-1,0.8-1.8,0.9-2.8,0.1C20.3,57.5,10.4,46.8,5,32.5c-2.2-5.8-3.3-11.9-3.3-18.1
			c0-2.2,0.7-3.7,2.8-4.9c8.8-4.8,18.2-6.3,28-6.6C33.1,2.9,33.6,2.9,34.1,2.9z M33.3,4.7c-1.8,0.1-4.3,0.1-6.8,0.4
			c-7.4,0.8-14.6,2.4-21.2,6.2c-1.1,0.6-1.5,1.4-1.6,2.7c-0.2,6.7,1.2,13.1,3.7,19.3c5.3,12.8,14.3,22.7,25,31.1
			c1,0.8,1.6,0.4,2.4-0.2c6.7-5.2,12.7-11,17.6-17.8c6.2-8.7,10.4-18.2,11-29c0.3-5.6-0.1-6.1-5.3-8.3C50.5,5.8,42.3,4.9,33.3,4.7z"
			/>
		<path class="st0" d="M33.3,4.7c9,0.1,17.2,1,24.9,4.3c5.2,2.2,5.6,2.7,5.3,8.3c-0.6,10.8-4.8,20.3-11,29c-5,6.9-11,12.7-17.6,17.9
			c-0.8,0.6-1.5,1-2.4,0.2C21.7,56,12.7,46.1,7.4,33.3c-2.5-6.2-4-12.6-3.7-19.3c0-1.3,0.5-2,1.6-2.7C11.9,7.6,19,5.9,26.5,5.1
			C29,4.8,31.5,4.8,33.3,4.7z M39.5,57c0.8-0.6,1.1-0.8,1.3-1c3-3.3,6.3-6.5,9-10.1C56.2,37.4,60.5,28,61,17.2
			c0.2-4.6,0.2-4.6-4.1-6.5c-6.7-2.9-13.8-3.8-21-4c-9.4-0.2-18.6,0.9-27.3,5.1c-2.8,1.3-2.8,1.6-2.7,4.7C6.2,23.3,8,29.7,11,35.9
			c0.6,1.3,1.4,2.6,2.2,4.1c0.2-3.1,0.3-5.8,0.5-8.6c-1,0.3-2,0.7-3.6,1.2c2.2-6.2,6.8-9.7,11.9-13.5c-1.5,0.1-2.4,0.1-3.2,0.2
			c-0.2-0.3-0.5-0.6-0.7-0.9c0.6-0.3,1.3-0.4,1.9-0.9c4.8-3.8,10.2-5.2,16.2-4.4c1.3,0.2,2.1,0,2.8-1.3c1-1.8,2.6-2.9,4.9-3.6
			c-0.1,1-0.2,1.7-0.2,2.4c0.7-0.1,1.2-0.3,2-0.4c-0.9,4.2,0.1,7.8,2.4,11c0.5,0.6,0.7,1.4,1,2.2c1.5,3.5,3,6.9,4.4,10.4
			c0.4,1.1,0.5,2.4,0.4,3.6c-0.2,2-1.7,3.2-4,3.5c-1.8,0.2-2.9-0.6-3.8-2.6c-0.2-0.4-0.5-1-0.8-1.1c-2.9-0.9-5.1-2.8-6.9-5.1
			c-0.7-0.9-1.5-0.9-1.9,0c-0.9,1.6-2.2,3.5-2,5.1c0.2,3,0.9,6.2,2.3,8.8C38.5,49.4,40.1,52.6,39.5,57z"/>
	</g>
	<path class="st1" d="M39.5,57"/>
	<path class="st1" d="M13.3,40"/>
</g>
</svg>
